<svg width="135" height="50" viewBox="0 0 135 50" fill="none" xmlns="http://www.w3.org/2000/svg">
<path fill-rule="evenodd" clip-rule="evenodd" d="M6 3C4.34315 3 3 4.34315 3 6V44C3 45.6569 4.34315 47 6 47H55.5C57.1569 47 58.5 45.6569 58.5 44V6C58.5 4.34315 57.1569 3 55.5 3H6ZM0 6C0 2.68629 2.68629 0 6 0H55.5C58.8137 0 61.5 2.68629 61.5 6V44C61.5 47.3137 58.8137 50 55.5 50H6C2.68629 50 0 47.3137 0 44V6Z" fill="#7E0021"/>
<path fill-rule="evenodd" clip-rule="evenodd" d="M22.4461 20.9813H25.5751V33.8556H22.4461V31.8102C21.5315 33.2059 20.0632 34 18.1377 34C14.4551 34 12 31.3048 12 27.3824C12 23.508 14.4069 20.885 18.0173 20.861C19.991 20.8369 21.5074 21.631 22.4461 23.0508V20.9813ZM18.8116 31.377C20.8334 31.377 22.2535 29.9813 22.4461 27.9118V26.9973C22.2535 24.9278 20.8334 23.5321 18.8116 23.5321C16.6694 23.5321 15.1771 25.1684 15.1531 27.4545C15.1771 29.7647 16.6454 31.377 18.8116 31.377ZM32.3386 29.6925C32.3386 30.6792 32.82 31.1364 33.518 31.1364C33.9031 31.1364 34.3123 30.992 34.7936 30.7513L35.1547 33.3743C34.3363 33.7834 33.518 34 32.7237 34C30.7981 34 29.2336 32.6524 29.2336 29.9572V16H32.3386V29.6925ZM46.371 20.9813H49.5V33.8556H46.371V31.8102C45.4564 33.2059 43.9881 34 42.0626 34C38.38 34 35.9249 31.3048 35.9249 27.3824C35.9249 23.508 38.3318 20.885 41.9422 20.861C43.9159 20.8369 45.4323 21.631 46.371 23.0508V20.9813ZM42.7365 31.377C44.7583 31.377 46.1784 29.9813 46.371 27.9118V26.9973C46.1784 24.9278 44.7583 23.5321 42.7365 23.5321C40.5944 23.5321 39.1021 25.1684 39.078 27.4545C39.1021 29.7647 40.5703 31.377 42.7365 31.377Z" fill="#7E0021"/>
<path fill-rule="evenodd" clip-rule="evenodd" d="M87.7004 29.3797V25.2406H90.504V33.8556H88.1077V32.3155C86.7898 33.3503 85.1603 34 83.5548 34C78.7143 34 75 30.27 75 25.4332C75 20.5963 78.9299 16.9144 84.034 16.9144C86.4543 16.9144 88.9464 17.8529 90.6478 19.3209L88.8027 21.6791C87.5326 20.5 85.7833 19.7781 84.058 19.7781C80.823 19.7781 78.2829 22.2567 78.2829 25.4332C78.2829 28.6337 80.7511 31.1123 83.8903 31.1123C85.376 31.1123 86.7658 30.4385 87.7004 29.3797ZM99.8975 31.4733C101.239 31.4733 102.485 30.8476 103.492 29.6684L105.313 31.3529C103.851 33.1096 101.934 33.9759 99.6818 33.9759C95.68 33.9759 92.9482 31.3529 92.9482 27.4305C92.9482 23.6043 95.4644 20.9091 99.4422 20.885C103.013 20.8369 105.409 23.0508 105.577 26.6364L96.4468 29.2353C97.0459 30.631 98.292 31.4733 99.8975 31.4733ZM99.61 23.3396C97.4773 23.3396 96.1353 24.6631 96.0874 27.1417L102.533 25.2888C102.006 23.9412 101.024 23.3396 99.61 23.3396ZM113.892 31.4733C115.234 31.4733 116.48 30.8476 117.486 29.6684L119.307 31.3529C117.846 33.1096 115.929 33.9759 113.676 33.9759C109.674 33.9759 106.943 31.3529 106.943 27.4305C106.943 23.6043 109.459 20.9091 113.437 20.885C117.007 20.8369 119.403 23.0508 119.571 26.6364L110.441 29.2353C111.04 30.631 112.286 31.4733 113.892 31.4733ZM113.604 23.3396C111.472 23.3396 110.13 24.6631 110.082 27.1417L116.528 25.2888C116.001 23.9412 115.018 23.3396 113.604 23.3396ZM130.786 33.8556L127.311 28.2246L125.346 30.2941V33.8556H122.231V16H125.346V26.3476L130.618 21.0053H134.212L129.468 25.9626L134.5 33.8556H130.786Z" fill="#7E0021"/>
</svg>
